<svg xmlns="http://www.w3.org/2000/svg" width="96" height="96" viewBox="0 0 96 96" fill="none" stroke-width="4" stroke-linecap="round" stroke-linejoin="round">
  <path d="M 10 22 L 30 22 M 10 48 L 34 48 M 10 74 L 26 74" stroke="#1F1E1C" stroke-width="6"/>
  <path d="M 40 22 L 52 22 M 47 17 L 52 22 L 47 27 M 40 48 L 52 48 M 47 43 L 52 48 L 47 53 M 40 74 L 52 74 M 47 69 L 52 74 L 47 79" stroke="#B8401F"/>
  <rect x="60" y="17" width="10" height="10" rx="2" stroke="#1F1E1C"/>
  <rect x="76" y="17" width="10" height="10" rx="2" stroke="#1F1E1C"/>
  <rect x="60" y="43" width="10" height="10" rx="2" stroke="#1F1E1C"/>
  <rect x="60" y="69" width="10" height="10" rx="2" stroke="#1F1E1C"/>
  <rect x="76" y="69" width="10" height="10" rx="2" stroke="#1F1E1C"/>
</svg>
